# xmcd
#
# Track frame offsets:
# 150
# 18755
# 19287
# 38248
# 54376
# 63399
# 100871
# 106403
# 128379
# 148615
# 175467
# 177043
#
# Disc length: 2602 seconds
#
#
# Revision: 2
# Processed by: cddbd v1.5.2PL0 Copyright (c) Steve Scherf et al.
# Submitted via: FreeRIP 2.96 
#
DISCID=970a280c
DTITLE=May, Abbe [AUS] - Hoodoo You Do
DYEAR=2008
DGENRE=Blues
TTITLE0=Hoodoo You Do (Browning the Sheets There's a Stiffening Cadaver) [The Devil and Abbe May] [from 'Hoodoo You Do', 2008] [FLVox]
TTITLE1=Call Me Back or I'll Unleash Hell's Hounds [The Devil and Abbe May] [from 'Hoodoo You Do', 2008] [FLVox]
TTITLE2=Oh Sweet Jaysus! [The Devil and Abbe May] [from 'Hoodoo You Do', 2008] [FLVox]
TTITLE3=You Gonna Get It [The Devil and Abbe May] [from 'Hoodoo You Do', 2008] [FLVox]
TTITLE4=A Wail of Sirens [The Devil and Abbe May] [from 'Hoodoo You Do', 2008] [FLVox]
TTITLE5=My Heart, It Struck Sorrow [The Devil and Abbe May] [from 'Hoodoo You Do', 2008] [FLVox]
TTITLE6=I've Been Thirsty, I Haven't Found Any Yet [The Devil and Abbe May] [from 'Hoodoo You Do', 2008] [FLVox]
TTITLE7=The Soul of a Man [using lyrics of song by Blind WIllie Johnson] [The Devil and Abbe May] [from 'Hoodoo You Do', 2008] [FLVox]
TTITLE8=Howard Moon [The Devil and Abbe May] [from 'Hoodoo You Do', 2008] [FLVox]
TTITLE9=Wang Dang Doodle [Howlin' Wolf cover (WIllie Dixon song), 1961]  [The Devil and Abbe May] [from 'Hoodoo You Do', 2008] [FLVox]
TTITLE10=The Ballad of Ignatius Elliott Archer [The Devil and Abbe May] [from 'Hoodoo You Do', 2008] [FLVox]
TTITLE11=Goodnight Irene [Huddie 'Lead Belly' Ledbetter cover, 1943] [The Devil and Abbe May] [from 'Hoodoo You Do', 2008] [FLVox]
EXTD=
EXTT0=
EXTT1=
EXTT2=
EXTT3=
EXTT4=
EXTT5=
EXTT6=
EXTT7=
EXTT8=
EXTT9=
EXTT10=
EXTT11=
PLAYORDER=
